<mxfile host="app.diagrams.net" modified="2023-07-25T07:43:33.164Z" agent="Mozilla/5.0 (Windows NT 10.0; Win64; x64) AppleWebKit/537.36 (KHTML, like Gecko) Chrome/115.0.0.0 Safari/537.36" version="21.6.5" etag="Pu40PwgnK0VTDS75hQNv" type="github">
  <diagram name="第 1 页" id="C9KpGtop9xiGtnV2Kpb9">
    <mxGraphModel>
      <root>
        <mxCell id="0" />
        <mxCell id="1" parent="0" />
      </root>
    </mxGraphModel>
  </diagram>
</mxfile>
